<?xml version="1.0" encoding="utf-8"?>
<!-- Generator: Adobe Illustrator 18.1.1, SVG Export Plug-In . SVG Version: 6.00 Build 0)  -->
<svg version="1.1" id="Layer_1" xmlns="http://www.w3.org/2000/svg" xmlns:xlink="http://www.w3.org/1999/xlink" x="0px" y="0px"
	 viewBox="32.3 247 502.1 72.7" enable-background="new 32.3 247 502.1 72.7" xml:space="preserve">
<g>
	<path fill="#FFFFFF" d="M74,300.6c0.7,1.5,1.3,2.9,1.7,4.2c-0.6,0.6-1.4,1.2-2.4,1.7s-2.2,1-3.5,1.4c-0.4,0.1-0.8,0.2-1.3,0.4
		c-0.5,0.2-1.1,0.3-1.7,0.5c-0.9,0.1-2,0.2-3.2,0.3s-2.7,0.3-4.4,0.5c-2.4,1.9-4.5,3.4-6.4,4.4c-1.9,1.1-3.4,1.8-4.7,2.1l-0.7,0.6
		c-1,0.5-2.3,0.8-3.8,1.1c-1.5,0.3-3.2,0.5-5.3,0.8c-0.4-0.1-0.7-0.3-1.1-0.7c-0.4-0.4-0.8-0.8-1.3-1.5c0.3-0.3,0.7-0.8,1.1-1.3
		c0.5-0.5,1-1.2,1.5-1.9s1-1.2,1.6-1.6s1.4-0.7,2.4-0.9s2.1-0.5,3.4-0.9c0.3-0.2,0.7-0.5,1.1-0.8c0.5-0.3,0.9-0.6,1.5-0.9
		c0.7-0.3,1.4-0.8,2.2-1.4c0.8-0.6,1.6-1.4,2.5-2.2c1.2-1.2,2.2-2.2,2.9-2.9c0.7-0.7,1.2-1.2,1.3-1.4c0.2-0.4,0.5-0.8,0.8-1.2
		c0.3-0.4,0.6-0.7,1-1c0.4-0.7,1-1.7,1.6-2.8c0.6-1.1,1.4-2.4,2.3-3.9c0.2-0.2,0.3-0.4,0.6-0.7c0.2-0.3,0.5-0.6,0.8-0.9
		c0.6-0.7,1.1-1.8,1.3-3.2c0.3-1.4,0.4-3.2,0.4-5.2c0-1.4-0.4-2.9-1.1-4.4c-0.7-1.5-1.8-3.2-3.3-4.9c-1.3-1.4-2.6-2.7-4-3.8
		c-1.4-1.1-2.8-2-4.3-2.7c-1.1-0.6-2.1-1.1-3.1-1.6c-1-0.5-1.8-1-2.6-1.5c-0.4,1.5-1,3.7-1.6,6.3c-0.7,2.7-1.4,6-2.2,9.8
		c-0.9,4.4-1.6,7.9-2.1,10.5c-0.5,2.7-0.7,4.5-0.7,5.4c-0.2,0.8-0.3,1.5-0.5,2.3l-1.8,9.1c-1.1,2.1-2,3.6-2.8,4.6
		c-0.8,1-1.4,1.5-1.8,1.5c-0.2,0-0.4-0.2-0.6-0.5c-0.2-0.4-0.4-0.9-0.6-1.7l0.6-2.6c-0.1-0.2-0.2-0.4-0.3-0.8c0.2-2,0.4-4,0.5-6.1
		c0.2-2,0.3-4.1,0.5-6.1c0.2-2.3,0.4-4.4,0.7-6.4c0.3-2,0.6-3.8,1-5.5l-0.6-2.3c0.2-0.6,0.4-1.3,0.6-2.2s0.3-1.8,0.4-2.9
		c0.1-1.4,0.2-2.6,0.3-3.4c0.1-0.9,0.2-1.5,0.3-1.8c0.1-0.4,0.3-0.9,0.4-1.5c0.1-0.6,0.3-1.4,0.5-2.2c0.1-0.3,0.6-1,1.6-2
		s1.6-1.7,1.9-2.2c0.6-0.1,1.1-0.2,1.4-0.4c0.3-0.2,0.5-0.4,0.5-0.7c0-0.2-0.2-0.4-0.5-0.6c-0.4-0.2-0.9-0.3-1.6-0.4
		c-0.3,0-0.7,0-1.2-0.1c-0.4-0.1-0.9-0.2-1.4-0.4l-3.8-1.8c-0.8-0.4-1.4-0.7-1.8-1.1s-0.6-0.8-0.6-1.1c0.2-0.6,0.3-1.2,0.5-1.8
		c-0.2-0.6-0.4-1.1-0.5-1.5c-0.1-0.4-0.2-0.7-0.2-0.9c0-0.3,0.1-0.5,0.2-0.6c0.1-0.2,0.3-0.2,0.6-0.2c0.9,0.2,1.6,0.3,2.3,0.4
		c0.3-0.1,0.6-0.2,0.9-0.3s0.6-0.2,0.9-0.3c0.7,0,1.4,0.1,2,0.2c0.6,0.1,1,0.2,1.3,0.3c0.4,0.2,0.9,0.4,1.3,0.7
		c0.5,0.2,0.9,0.5,1.3,0.6c0.4-0.1,0.9-0.1,1.5-0.2c0.2,0,0.4,0,0.5,0.1c0.4,0.2,0.8,0.5,1.3,0.7s1.1,0.4,1.8,0.5s1.4,0.3,1.9,0.4
		s0.9,0.3,1.2,0.4c3.2,1.7,6.1,3.3,8.5,4.8c2.4,1.5,4.5,2.9,6,4.3c2.5,2.2,4.4,4.5,5.6,7c1.2,2.5,1.8,5.1,1.8,7.8
		c0,4.3-1.3,8.9-3.8,13.7c-2.5,4.8-6.3,9.9-11.4,15.2c0.4-0.2,1-0.4,1.7-0.6c0.7-0.2,1.5-0.5,2.4-0.8c1.9-0.4,3.9-0.9,6-1.4
		c1.3-0.4,2.4-0.8,3.3-1.2C72.7,301.7,73.4,301.1,74,300.6z"/>
	<path fill="#FFFFFF" d="M116.8,300.6l1.7,4.2c-0.3,0.3-0.7,0.6-1.2,1c-0.5,0.4-1,0.7-1.7,1.1c-0.7,0.2-1.4,0.5-2.3,0.9
		s-1.9,0.9-3.1,1.4c-0.9,0.5-1.6,1-2.2,1.2c-0.6,0.3-1,0.4-1.2,0.4c-0.4,0-1.1,0.2-2.2,0.5s-2.4,0.8-4.2,1.5c-0.9,0.3-1.9,0.7-2.9,1
		c-1,0.4-2.1,0.7-3.2,0.9l-2.8-0.4l-1.8,0.8c-0.6,0-1.2,0-1.8,0c-0.6,0-1.2-0.1-1.7-0.1c-0.9,0-1.6-0.2-2-0.4s-0.7-0.5-0.7-0.9
		l0.3-1.7l-0.3-0.3c-1,0-1.7-0.1-2.1-0.4c-0.4-0.3-0.5-0.9-0.5-1.9c0-0.5,0-1.2,0.1-2.3c0-1.1,0.1-2.5,0.2-4.2c0-0.2,0.1-0.5,0.3-1
		c0.2-0.5,0.3-0.8,0.3-1.1c-0.1-0.3-0.2-0.6-0.3-0.7c0-0.2,0-0.4,0-0.5c0.1-1.2,0.2-2.7,0.4-4.4c0.2-1.7,0.5-3.8,0.8-6.2
		c0.4-1.4,0.7-3.1,0.9-4.9c-0.1-1.4-0.1-2.7-0.2-4.1c1.1-5.1,2.3-10.2,3.5-15.4c0.2-0.9,0.5-1.8,1-2.6c0.5-0.8,1.1-1.6,1.8-2.4
		c0.3-0.2,0.5-0.4,0.6-0.5c0.2-0.3,0.4-0.6,0.6-1c0.2-0.4,0.5-0.9,0.9-1.4c0.2-0.1,0.5-0.3,0.9-0.5c0.4-0.2,1-0.6,1.7-1
		c0.3-0.2,0.7-0.5,1.1-0.9c0.4-0.3,0.9-0.7,1.4-1.2c1.2-0.7,2.2-1.5,3.2-2.2c1-0.8,2.2-1.3,3.8-1.4c0.7,0,1.4-0.1,2.1-0.1
		c0.7,0,1.4-0.1,2-0.2c0.6-0.1,1.2-0.2,1.6-0.2c0.3-0.1,0.6-0.1,0.8-0.2c0.2-0.1,0.4-0.1,0.6-0.1c0.2,0,0.4,0,0.8,0.1
		c0.3,0,0.8,0.1,1.3,0.2c0.4,0,0.8,0,1.1,0c0.3,0,0.6,0,0.9,0c1.2,0.4,2.1,0.9,2.7,1.6c0.6,0.7,0.9,1.5,0.9,2.5
		c0,2.1-0.2,3.7-0.6,4.7c-0.4,1-1.1,1.5-2,1.5c-0.7,0-1.4-0.3-2.3-1c-0.9-0.7-3.2-1-6.9-1c-1.6,0.3-3.1,0.6-4.6,0.9
		c-0.2,0.2-0.3,0.4-0.5,0.6c-0.2,0.1-0.4,0.2-0.5,0.3l-1.6-0.6c-0.5,0.2-1,0.7-1.7,1.5c-0.6,0.8-1.3,2-1.9,3.4
		c-0.1,0.3-0.3,0.7-0.3,1.1c-0.1,0.5-0.1,1-0.1,1.6c-0.6,2.2-1.1,4.3-1.7,6.4c-0.5,2.2-0.9,3.9-1.3,5c-0.5,0.9-0.7,1.6-0.7,1.8
		c-0.1,0.3-0.2,0.6-0.2,0.9c-0.1,0.3-0.1,0.5-0.1,0.8c0,0.4,0.1,0.7,0.2,0.9c0.2,0.2,0.4,0.3,0.7,0.3c0.3,0,0.9-0.5,2-1.5
		c1.1-1,1.8-1.6,2.4-1.7c0.6-0.2,1.3-0.4,2-0.6c0.7-0.2,1.3-0.5,2-0.8c0.3-0.1,1-0.2,2.2-0.4c1.2-0.2,2.8-0.3,4.9-0.6l1.3,0.4
		l2.4-0.5l1.3,0.6c0.3,0.3,0.6,0.7,0.9,1.1s0.5,0.9,0.7,1.4c0,1.8-0.2,3.2-0.6,4.2c-0.4,0.9-1,1.4-1.8,1.4l-2.5-1
		c-2.1,0.2-4.1,0.4-6.2,0.6c-2,0.2-4.1,0.4-6.2,0.6c-2.6,0.5-4.6,1.4-5.9,2.5c-1.4,1.2-2.1,2.7-2.3,4.6c0,0.4-0.1,1-0.3,1.8
		c-0.2,0.8-0.4,1.9-0.6,3.1l0.3,1.4c-0.3,1.3-0.5,2.6-0.6,3.7c-0.2,1.2-0.2,2.2-0.2,3.1c0,0.3,0,0.5,0.1,0.7
		c0.1,0.1,0.2,0.2,0.3,0.1c1.5-0.1,2.7-0.2,3.5-0.3c0.9-0.1,1.5-0.1,1.9,0c0.8,0.1,1.6,0.1,2.4,0.2l2.9-0.2c0.3-0.1,1-0.3,2-0.7
		s2-0.6,2.8-0.6c0.9,0,1.8-0.1,2.7-0.3c0.9-0.2,1.8-0.4,2.6-0.7c0.8-0.3,1.7-0.6,2.5-0.9c0.8-0.3,1.6-0.6,2.5-0.9
		c0.3-0.1,0.7-0.3,1.2-0.5C115.5,301.3,116.1,301,116.8,300.6z"/>
	<path fill="#FFFFFF" d="M158.4,266.3c0.6-0.4,1.1-0.9,1.7-1.3c0.5-0.4,1.2-0.6,2-0.6c0.4,0,0.8,0.4,1.4,1.2
		c0.5,0.8,0.8,1.4,0.8,1.8c0,0.2-0.1,0.7-0.2,1.5c-0.2,0.8-0.4,1.8-0.7,3.1c-0.7,3-1.1,4.8-1.2,5.6c-0.1,0.8-0.3,1.9-0.6,3.5
		c-0.1,0.4-0.2,0.9-0.4,1.6c0,0.3,0,0.5,0.2,0.6c0.1,0.1,0.2,0.2,0.4,0.2c6.1-3.1,9.3-4.7,9.5-4.8s0.5-0.1,0.8-0.3
		c0.3-0.1,0.5-0.2,0.8-0.3l0.7-0.9c1.8-1.1,3.6-2.3,5.5-3.6c1.2-0.9,2.1-1.8,2.7-2.7c0.6-0.9,0.9-1.8,0.9-2.7c0-1.1-0.7-2.3-2-3.4
		c-1.3-1.1-3.3-2.2-5.9-3.2c-2.2-0.9-4.3-1.5-6.1-2c-1.8-0.4-3.5-0.6-5-0.6c-2,0-3.4,0.3-4.4,1c-1,0.7-1.5,1.7-1.5,3.1
		c0,1,0.1,1.8,0.2,2.4C157.9,266.1,158.1,266.4,158.4,266.3z M163.3,288.4c0,0.6,0.4,1.4,1.3,2.5c0.9,1,2.2,2.3,3.9,3.8
		c1.1,1,2.3,1.9,3.5,2.8c1.2,0.9,2.4,1.8,3.6,2.7c0.5,0.4,1.2,1,2,1.7c0.8,0.7,1.8,1.5,2.9,2.4c0.8,0.6,1.6,1.2,2.5,1.8
		s1.8,1.2,2.8,1.8c0.7,0.5,1.4,1.1,2.3,1.7c0.8,0.6,1.8,1.3,2.9,2c0.6,0.4,1.1,1,1.4,2c0.3,1,0.5,2.2,0.6,3.8l-0.4,1.2l-0.5,0.2
		c-0.3,0-0.7-0.1-1.2-0.4c-0.5-0.3-1.1-0.6-1.9-1.1c-0.2-0.1-0.9-0.4-2.1-1c-1.2-0.6-3-1.4-5.4-2.5c-1.3-0.6-2.5-1.2-3.5-1.9
		c-1.1-0.7-2.1-1.4-2.9-2.2c-0.5-0.5-1.2-1-2-1.5c-0.8-0.5-1.8-1.1-2.9-1.8c-1.1-0.6-2.1-1.3-2.9-1.8c-0.8-0.6-1.5-1.1-2-1.5
		c-1.7-1.4-3-2.4-4-3.1c-1-0.7-1.8-1.1-2.2-1.1c-0.3,0.4-0.5,0.9-0.5,1.3c-0.4,1.4-0.8,3.3-1.2,5.5c-0.4,2.2-0.9,4.7-1.4,7.7
		c0,0.5-0.1,0.9-0.3,1.2s-0.5,0.4-0.8,0.4c-1.2,0-2.1-0.3-2.7-0.9c-0.6-0.6-0.9-1.5-0.9-2.6c0-1.6,0.1-3.2,0.3-4.9
		c0.2-1.7,0.5-3.5,1-5.4c0.2-0.8,0.3-1.6,0.3-2.2c0.1-0.7,0.1-1.3,0.1-1.8c0-1.4-0.6-2.6-1.8-3.6c-1.2-1-1.8-1.7-1.8-2.2
		c0-0.7,0.1-1.3,0.3-1.8s0.5-0.9,0.9-1.2c1-0.6,1.9-1.3,2.8-1.8c0.2-0.1,0.4-0.3,0.4-0.6c0.1-0.3,0.1-0.7,0.1-1.2c0-0.3,0-0.6,0-1
		s0-0.7,0-1c0.1-2.7,0.2-5.6,0.2-8.5c0-0.2,0-0.6,0-1c0-0.5,0-1.1-0.1-1.8c-0.1-0.6-0.1-1.1-0.1-1.5c0-0.5,0.1-0.9,0.1-1.3
		c-0.2-0.6-0.3-1.1-0.5-1.6c-0.1-0.4-0.2-0.9-0.2-1.3s0-0.9,0.1-1.7c0.1-0.8,0.1-1.3,0.1-1.7s0-1-0.1-1.8c-0.1-0.8-0.1-1.3-0.1-1.7
		c0-1.1,0.3-2.2,0.8-3.2c0.5-1,1.3-2,2.3-3c1-0.9,2-1.5,3.1-2c1.1-0.4,2.1-0.7,3.2-0.7c0.5,0,1.3,0,2.3,0.1s1.8,0.1,2.4,0.1
		c0.4,0,1.5,0.3,3.3,1c0.7,0.1,1.3,0.1,1.9,0.3c0.6,0.1,1,0.2,1.3,0.3c0.8,0.4,1.4,0.7,1.8,0.9c0.4,0.2,0.7,0.3,0.9,0.3
		c0.5,0.2,1,0.3,1.4,0.5c0.4,0.1,0.7,0.3,0.9,0.5c0.4,0.2,0.9,0.4,1.4,0.6c0.5,0.2,1.1,0.5,1.8,0.8c1.1,0.6,2.1,1.2,3.1,1.9
		c1,0.7,1.9,1.5,2.7,2.4c1,1.1,1.7,2.2,2.2,3.2c0.5,1.1,0.7,2.1,0.7,3.2c0,0.3,0,0.7-0.1,1.3c-0.1,0.6-0.1,1.2-0.3,1.9
		c-0.1,0.9-0.6,1.8-1.4,2.9c-0.8,1-2,2.2-3.6,3.4c-1.4,1.1-2.7,2-3.9,2.7c-1.2,0.7-2.3,1.2-3.3,1.5c-0.4,0.3-0.7,0.5-0.9,0.8
		c-0.3,0.3-0.9,0.7-1.9,1.3c-1,0.6-2.3,1.2-4,2.1c-3.1,1.5-5.2,2.5-6.5,3C163.9,287.4,163.3,287.9,163.3,288.4z"/>
	<path fill="#FFFFFF" d="M198.2,304.1c0-1.7,0.1-3.2,0.2-4.3c0.1-1.2,0.3-2.1,0.5-2.8c-0.1-0.5-0.1-1.1-0.2-1.6
		c0-0.6,0.1-1.7,0.2-3.2c0.2-1.5,0.4-3.5,0.7-5.9c0.3-2.3,0.5-4.1,0.7-5.4c0.2-1.3,0.3-2,0.4-2.3c-0.1-0.5-0.1-1.1-0.2-1.7
		c-0.1-0.6-0.2-1.3-0.4-2l-1-0.7l-0.2-0.6c0.1-0.9,0.1-1.7,0.2-2.6c0-0.9,0.1-1.8,0.3-2.6c0.1-1.1,0.2-2.1,0.4-2.9
		c0.2-0.8,0.5-1.5,0.7-2.2c0.1-0.2,0.2-0.4,0.3-0.6c0.1-0.3,0.2-0.6,0.4-0.9c0.3-1.1,0.5-2.2,0.8-3.3c0.3-1.1,0.6-2.2,0.9-3.2
		c0.5-1,1.1-1.9,2-2.5c0.9-0.6,1.9-1.1,3.1-1.2c0.9-0.5,1.6-0.8,2.2-1c0.6-0.2,1.1-0.3,1.5-0.3c0.4,0,0.8,0.2,1,0.5
		c0.2,0.3,0.4,0.8,0.4,1.4c0,0.2-0.1,1.1-0.4,2.6c-0.2,1.5-0.6,3.5-1.1,6c-0.1,0.9-0.3,1.9-0.5,3.1c-0.2,1.2-0.5,2.6-0.9,4.2
		c-0.5,1.8-0.9,3.8-1.4,6c-0.5,2.2-0.9,4.5-1.2,7.2c-0.2,1.1-0.3,2.2-0.5,3.3c-0.2,1.1-0.4,2.2-0.5,3.3c-0.2,1.3-0.3,2.4-0.5,3.6
		c-0.1,1.1-0.2,2.1-0.2,3c0,0.3,0,0.7,0.1,1c0,0.3,0.1,0.6,0.1,0.9c0.1,0.3,0,0.8,0,1.3c-0.1,0.6-0.2,1.2-0.3,2
		c-0.1,0.7-0.2,1.4-0.3,2c-0.1,0.6-0.1,1.1-0.1,1.4c0,1.6,0,2.8,0.1,3.8c0.1,1,0.2,1.6,0.2,1.9c0.2,0.8,0.4,1.7,0.6,2.7
		c0,0.5-0.7,1.3-2.1,2.3c-1.4,1-2.4,1.5-3,1.5c-0.4,0-0.7-0.1-1-0.4s-0.6-0.7-0.9-1.2c-0.2-0.5-0.4-0.9-0.5-1.3
		c-0.1-0.4-0.2-0.8-0.2-1.1c0-0.2,0.1-0.5,0.2-0.9c0.1-0.4,0.2-0.7,0.2-0.9c-0.2-0.9-0.5-1.7-0.8-2.3c-0.1,0.3-0.1,0.2-0.1-0.2
		C198.2,306.1,198.2,305.3,198.2,304.1z"/>
	<path fill="#FFFFFF" d="M245.9,261.4c-0.7,0-1.5,0.1-2.2,0.3c-0.8,0.2-1.6,0.4-2.3,0.8l-4.5,2c-0.3,0.2-0.7,0.4-1,0.7
		c-0.4,0.3-0.8,0.8-1.3,1.4l-2.1,2.6c-0.7,0.8-1.3,2.3-1.8,4.4c-0.5,2.1-1,4.9-1.4,8.3c-0.3,2.6-0.5,5-0.6,7.3
		c-0.1,2.3-0.2,4.3-0.2,6.2c0,3.9,0.6,6.8,1.8,8.7c1.2,1.9,3,2.9,5.4,2.9c1.1,0,2.4-0.3,3.8-0.9c1.4-0.6,2.9-1.5,4.6-2.7
		c1.4-1,2.7-2.1,3.7-3.2c1.1-1.1,2-2.1,2.7-3.2c0.3-0.4,0.8-1.3,1.4-2.7c0.7-1.4,1.6-3.3,2.7-5.7c0.8-1.7,1.4-3.5,1.8-5.3
		c0.4-1.8,0.6-3.6,0.6-5.5c-0.2-0.9-0.4-1.8-0.6-2.7l0.3-2c-0.3-0.4-0.6-0.7-0.8-1c-0.1-0.2-0.2-0.4-0.2-0.6c-1-3.3-2.2-5.8-3.9-7.5
		C250.3,262.3,248.3,261.4,245.9,261.4z M218.3,283.9c0-0.4,0.1-0.9,0.3-1.4c0.2-0.6,0.6-1.2,1-1.9c0.6-0.9,1.1-1.6,1.4-2.2
		c0.3-0.5,0.5-0.9,0.5-1c0.2-0.3,0.4-0.8,0.6-1.3c0.3-0.6,0.6-1.2,0.9-1.9c0.3-0.3,0.7-1.1,1.1-2.2c0.4-1.1,0.9-2.6,1.4-4.4
		c0.2-0.5,0.5-1.1,0.8-1.8c0.3-0.7,0.6-1.5,1-2.5c0.1-0.7,0.4-1.5,0.7-2.5s0.8-2,1.3-3.2c0.6-1.1,1.3-2.2,2-3.3
		c0.7-1.1,1.7-1.9,3-2.4c0.5,0.3,0.9,0.7,1.2,1c0.3,0.3,0.4,0.7,0.4,1c0,0.8-0.3,1.8-1,3.1c-0.7,1.3-1,2.1-1,2.6
		c0,0.2,0.1,0.5,0.4,0.7c0.2-0.1,0.7-0.5,1.3-1.1c0.6-0.6,1.5-1.4,2.5-2.5c0.9-0.8,1.6-1.5,2.3-2c0.7-0.5,1.4-0.8,2-0.9
		c0.4-0.2,0.9-0.3,1.5-0.4s1.3-0.3,2.1-0.6c0.4-0.2,0.7-0.4,1-0.6c0.2-0.2,0.6-0.4,1-0.6l0.7,0.1c0.3,0.3,1,0.6,2.3,0.9
		c1.3,0.3,2.1,0.4,2.4,0.4c0.3,0.2,0.6,0.4,1,0.7c0.4,0.3,0.8,0.7,1.4,1.1c1.2,0.7,2.4,1.8,3.4,3.2c1.1,1.4,2,3.2,2.9,5.3
		c0.8,1.9,1.4,3.8,1.8,5.5c0.4,1.7,0.6,3.4,0.6,5.1c0,5.1-0.6,9.6-1.9,13.3c-1.3,3.8-3.2,6.9-5.8,9.3c-0.2,0.2-0.5,0.5-0.9,0.9
		c-0.4,0.3-0.8,0.8-1.3,1.3v0.5c-0.1,0.3-0.2,0.6-0.5,1s-0.7,0.8-1.2,1.2c-1.1,1-2.3,2.1-3.4,3.2c-1.2,1.1-2.4,2.1-3.6,3.1
		c-1.5,1.3-3,2.4-4.4,3.1c-1.4,0.8-2.7,1.3-4,1.6c-0.6,0.5-1.2,0.9-2,1.1c-0.8,0.3-1.8,0.4-3,0.4c-1.7,0-3.1-0.1-4.2-0.3
		c-1.1-0.2-1.8-0.6-2.3-1c-0.3-0.3-0.6-0.5-1-0.8c-0.4-0.3-0.8-0.6-1.3-1.1c-0.5-0.4-1-1.1-1.5-2.2s-0.9-2.4-1.2-4.1
		c-0.2-1.3-0.4-2.5-0.6-3.7c-0.1-1.2-0.2-2.3-0.2-3.3c0-0.3,0.1-0.8,0.2-1.5c0.2-0.7,0.2-1.2,0.2-1.6c0-0.7,0-1.3-0.1-1.8
		c0-0.6,0.2-1.4,0.5-2.6c0.3-1.2,0.5-2.1,0.5-2.8c0-0.2-0.1-0.4-0.3-0.7c-0.5,0.5-0.8,1.1-1.1,1.5c-0.2,0.3-0.4,0.5-0.6,0.7
		s-0.5,0.2-0.7,0.2c-0.3,0-0.6-0.1-0.8-0.4c-0.2-0.3-0.3-0.7-0.3-1.2c0-0.4,0.1-0.9,0.3-1.7C218.3,284.9,218.3,284.3,218.3,283.9z"
		/>
	<path fill="#FFFFFF" d="M298.7,261.4c-0.7,0-1.5,0.1-2.3,0.3s-1.6,0.4-2.3,0.8l-4.5,2c-0.3,0.2-0.6,0.4-1,0.7
		c-0.4,0.3-0.8,0.8-1.3,1.4l-2.1,2.6c-0.7,0.8-1.3,2.3-1.8,4.4c-0.5,2.1-1,4.9-1.4,8.3c-0.3,2.6-0.5,5-0.6,7.3
		c-0.1,2.3-0.2,4.3-0.2,6.2c0,3.9,0.6,6.8,1.8,8.7c1.2,1.9,3,2.9,5.4,2.9c1.1,0,2.4-0.3,3.8-0.9c1.4-0.6,2.9-1.5,4.6-2.7
		c1.4-1,2.7-2.1,3.7-3.2c1.1-1.1,2-2.1,2.7-3.2c0.3-0.4,0.8-1.3,1.4-2.7c0.7-1.4,1.6-3.3,2.7-5.7c0.8-1.7,1.4-3.5,1.8-5.3
		c0.4-1.8,0.6-3.6,0.6-5.5c-0.2-0.9-0.4-1.8-0.6-2.7l0.3-2c-0.3-0.4-0.6-0.7-0.8-1c-0.1-0.2-0.2-0.4-0.2-0.6c-1-3.3-2.2-5.8-3.9-7.5
		C303.1,262.3,301.1,261.4,298.7,261.4z M271.1,283.9c0-0.4,0.1-0.9,0.3-1.4c0.2-0.6,0.6-1.2,1-1.9c0.7-0.9,1.1-1.6,1.5-2.2
		c0.3-0.5,0.5-0.9,0.5-1c0.2-0.3,0.4-0.8,0.6-1.3c0.3-0.6,0.6-1.2,0.9-1.9c0.3-0.3,0.7-1.1,1.1-2.2c0.4-1.1,0.9-2.6,1.4-4.4
		c0.2-0.5,0.5-1.1,0.8-1.8c0.3-0.7,0.6-1.5,1-2.5c0.1-0.7,0.4-1.5,0.7-2.5s0.8-2,1.3-3.2c0.6-1.1,1.3-2.2,2-3.3
		c0.7-1.1,1.7-1.9,3-2.4c0.5,0.3,0.9,0.7,1.2,1c0.3,0.3,0.4,0.7,0.4,1c0,0.8-0.3,1.8-1,3.1c-0.7,1.3-1,2.1-1,2.6
		c0,0.2,0.1,0.5,0.4,0.7c0.2-0.1,0.7-0.5,1.3-1.1c0.6-0.6,1.5-1.4,2.5-2.5c0.9-0.8,1.6-1.5,2.3-2c0.7-0.5,1.3-0.8,2-0.9
		c0.4-0.2,0.9-0.3,1.5-0.4s1.3-0.3,2.1-0.6c0.4-0.2,0.7-0.4,1-0.6c0.2-0.2,0.5-0.4,1-0.6l0.7,0.1c0.3,0.3,1,0.6,2.3,0.9
		c1.3,0.3,2,0.4,2.4,0.4c0.3,0.2,0.6,0.4,1,0.7c0.4,0.3,0.8,0.7,1.4,1.1c1.2,0.7,2.4,1.8,3.4,3.2c1.1,1.4,2,3.2,2.9,5.3
		c0.8,1.9,1.4,3.8,1.8,5.5c0.4,1.7,0.6,3.4,0.6,5.1c0,5.1-0.6,9.6-1.9,13.3c-1.3,3.8-3.2,6.9-5.8,9.3c-0.2,0.2-0.5,0.5-0.9,0.9
		c-0.4,0.3-0.8,0.8-1.3,1.3v0.5c-0.1,0.3-0.2,0.6-0.5,1c-0.3,0.4-0.7,0.8-1.2,1.2c-1.1,1-2.3,2.1-3.4,3.2c-1.2,1.1-2.4,2.1-3.6,3.1
		c-1.5,1.3-3,2.4-4.4,3.1c-1.4,0.8-2.7,1.3-4,1.6c-0.6,0.5-1.2,0.9-2,1.1c-0.8,0.3-1.8,0.4-3,0.4c-1.7,0-3.1-0.1-4.2-0.3
		c-1.1-0.2-1.8-0.6-2.3-1c-0.3-0.3-0.6-0.5-1-0.8s-0.8-0.6-1.3-1.1c-0.5-0.4-1-1.1-1.5-2.2s-0.9-2.4-1.2-4.1
		c-0.2-1.3-0.4-2.5-0.6-3.7c-0.1-1.2-0.2-2.3-0.2-3.3c0-0.3,0.1-0.8,0.2-1.5c0.2-0.7,0.2-1.2,0.2-1.6c0-0.7,0-1.3-0.1-1.8
		c0-0.6,0.2-1.4,0.5-2.6c0.3-1.2,0.5-2.1,0.5-2.8c0-0.2-0.1-0.4-0.3-0.7c-0.5,0.5-0.8,1.1-1.1,1.5c-0.2,0.3-0.4,0.5-0.6,0.7
		c-0.2,0.2-0.5,0.2-0.7,0.2c-0.3,0-0.6-0.1-0.8-0.4c-0.2-0.3-0.3-0.7-0.3-1.2c0-0.4,0.1-0.9,0.3-1.7
		C271,284.9,271.1,284.3,271.1,283.9z"/>
	<path fill="#FFFFFF" d="M349.7,300.6c1.2,2.7,1.8,4.1,1.8,4.2c-0.4,0.6-0.8,1.1-1.1,1.8c-0.3,0.6-0.7,1.2-1.1,1.9
		c-0.4,0.5-0.8,1-1.4,1.4s-1.2,0.7-2,1c-1.1,0.4-2.1,0.9-3.1,1.3s-1.9,0.8-2.7,1.2c-0.9,0.4-1.9,0.7-2.9,0.9c-1,0.1-2,0.3-3,0.4
		c-0.7,0.2-1.3,0.3-2,0.3c-0.7,0.1-1.3,0.1-1.8,0.1s-0.8,0-1.2-0.1c-0.3,0-0.6-0.1-0.8-0.3c-0.3-0.2-0.5-0.4-0.8-0.6
		c-0.3-0.2-0.5-0.4-0.8-0.5c-0.5-0.3-0.9-0.5-1.2-0.7c-0.4-0.2-0.6-0.8-0.8-1.8c-0.2-1-0.2-2.5-0.2-4.4c0-1.4,0.4-3.5,1.2-6.4
		c0.8-3,1.2-5,1.2-6c0-0.2,0-0.5-0.1-0.9c-0.1-0.4-0.1-0.7-0.1-0.9c0-0.9,0.3-2.8,0.9-5.9s0.9-5.2,0.9-6.4c0-0.6-0.2-1-0.7-1.3
		c-0.5-0.3-0.7-0.7-0.7-1.2c0-0.7,0.1-1.6,0.2-2.5c0.1-0.9,0.3-1.9,0.6-3c0.2-0.9,0.5-1.8,0.7-2.7c0.2-0.9,0.4-1.8,0.6-2.6
		c0.2-1,0.4-2,0.7-3.1c0.2-1,0.4-2.1,0.6-3c0.2-0.7,0.5-1.5,0.9-2.5c0.4-1,0.9-2.1,1.4-3.4c0.3-0.6,0.5-1.2,0.7-1.7
		c0.2-0.5,0.5-1.1,0.7-1.7c0.2-0.5,0.6-0.9,1.1-1.3c0.5-0.4,1-0.7,1.7-1c0.6-0.2,1-0.4,1.5-0.5c0.4-0.1,0.7-0.2,0.9-0.2
		c0.8,0,1.4,0.3,1.8,0.9c0.4,0.6,0.6,1.4,0.6,2.6c0,0.4,0,0.8-0.1,1.3c0,0.5-0.2,1-0.3,1.6c-0.1,0.6-0.2,1.2-0.3,1.7
		s-0.2,0.8-0.3,1.1c0,0.7-0.1,1.4-0.1,2c-0.1,0.6-0.1,1.2-0.2,1.7c-0.2,0.4-0.4,0.8-0.7,1.3c-0.2,1.4-0.4,2.6-0.5,3.6
		c-0.1,1-0.2,1.6-0.2,2c0,1.3-0.3,2.9-1,4.9c-0.7,1.9-1,3.4-1,4.4c0,0.4-0.1,1-0.2,1.7c-0.2,0.7-0.4,1.5-0.7,2.5
		c-0.3,1.3-0.6,2.3-0.8,3c-0.2,0.7-0.3,1.1-0.4,1.3c-0.1,0.5-0.1,1-0.2,1.6c-0.1,0.6-0.2,1.3-0.3,2.2c-0.7,3.3-1.2,6.1-1.6,8.3
		c-0.3,2.2-0.5,3.8-0.5,4.9c0,1,0.1,1.8,0.3,2.3c0.2,0.6,0.5,0.8,1,0.8c1.9,0,3.9-0.2,5.9-0.6c2-0.4,4-1.1,6.2-1.9
		c0.2,0,0.5-0.1,0.7-0.2c0.2-0.1,0.5-0.2,0.7-0.3c0.4-0.4,0.6-0.8,0.8-1.2c0.4-0.2,0.8-0.5,1.1-0.8
		C349.3,301.1,349.5,300.8,349.7,300.6z"/>
	<path fill="#FFFFFF" d="M395,300.6c1.3,2.7,1.9,4.1,1.9,4.2c-0.6,0.6-1.4,1.4-2.5,2.2c-1,0.8-2.3,1.7-3.8,2.7
		c-1.6,1.1-2.9,1.9-4,2.4s-1.9,0.7-2.5,0.7c-1.3,0-2.4-0.3-3.4-1c-1-0.6-1.8-1.7-2.6-3c-0.1-0.2-0.2-0.4-0.3-0.6
		c-0.1-0.2-0.2-0.5-0.4-0.7c-0.8-0.7-1.5-1.5-2.2-2.2c-0.3-0.4-1-1.2-1.9-2.6c-1-1.4-2.2-3.3-3.6-5.7c-0.6-1.1-1.3-2.3-2.1-3.4
		c-0.7-1.2-1.5-2.3-2.3-3.5c-0.2,0.3-0.5,1-0.7,2.1c-0.3,1.1-0.5,2.6-0.8,4.6c0,0.3-0.1,0.8-0.3,1.5c-0.2,0.7-0.3,1.2-0.3,1.6
		c0,0.2,0,0.4,0.1,0.8c0.1,0.4,0.1,0.6,0.1,0.8c0,1-0.1,2.5-0.4,4.5c-0.3,2-0.4,3.5-0.4,4.5c0,0.8-0.1,1.4-0.4,1.7
		c-0.3,0.4-0.7,0.5-1.3,0.5c-0.6-0.1-1.1-0.2-1.5-0.3c-0.5,0.1-0.9,0.2-1.3,0.3c-0.3,0-0.6-0.2-0.8-0.6c-0.2-0.4-0.3-1.1-0.3-2
		c0-0.3,0.1-0.8,0.2-1.5c0.2-0.7,0.2-1.2,0.2-1.6c0-0.2,0-0.6-0.1-1.2c-0.1-0.5-0.1-0.9-0.1-1.2c0-0.2,0.1-1,0.2-2.3
		c0.1-1.3,0.4-3.1,0.7-5.6c0.3-2.5,0.5-4.4,0.7-5.9c0.2-1.4,0.4-2.3,0.5-2.6c0.1-0.2,0.2-0.5,0.4-0.8c0.2-0.3,0.3-0.7,0.3-1.1
		l-0.7-2.6c0.2-1.4,0.5-3.5,0.9-6.2c0.3-2.7,0.8-6.2,1.3-10.4c0.3-2.5,0.5-4.4,0.6-5.7c0.2-1.3,0.2-2.1,0.3-2.3
		c0.4-1.3,1.1-2.3,2-3.1c0.9-0.8,2-1.5,3.4-1.9c0.2-0.1,0.4-0.3,0.7-0.5c0.3-0.2,0.6-0.5,0.9-0.7c0.4-0.1,0.9,0.5,1.5,1.7
		c0.6,1.2,0.9,2,0.9,2.6c0,0.2,0,0.6-0.1,1s-0.2,0.9-0.4,1.4c-0.2,0.7-0.4,1.2-0.5,1.7c-0.1,0.4-0.2,0.7-0.2,0.9
		c-0.5,1.7-1,3.8-1.7,6.3c-0.6,2.5-1.3,5.6-2,9c-0.1,0.3-0.1,0.6-0.2,1c-0.1,0.4-0.2,0.9-0.4,1.5c-0.1,0.5-0.2,1-0.3,1.4
		s-0.1,0.8-0.1,1.1c0,0.4,0.2,0.8,0.5,1.3c0.9-0.3,2.4-1.6,4.4-3.8c2-2.2,4.6-5.2,7.8-9.2c3.2-4,5.7-7.2,7.3-9.7
		c1.6-2.5,2.4-4.3,2.4-5.3c0-0.4-0.2-0.8-0.7-1.4c-0.5-0.6-0.7-1-0.7-1.5c0-0.8,0.4-1.5,1.1-2c0.7-0.5,1.9-0.9,3.4-1.2
		c0.3,0,0.8-0.3,1.4-0.8c0.6-0.5,1.2-0.8,1.7-0.8c0.5,0.1,0.9,0.2,1.3,0.2c0.5-0.3,1-0.6,1.5-0.9c0.5,0.5,0.8,1,1,1.5
		c0.2,0.6,0.3,1.2,0.3,2c0,1.5-0.2,2.8-0.5,3.9c-0.4,1.1-0.9,2-1.6,2.7c-0.2,0.2-0.4,0.4-0.7,0.6c-0.2,0.2-0.5,0.5-0.7,0.8
		c-0.5,1-1.2,2.2-2,3.5c-0.9,1.3-1.9,2.6-3.1,4.1c-2.6,3.3-5.1,6.1-7.3,8.6c-2.2,2.5-4.2,4.5-6,6.2c-0.7,0.7-1.3,1.3-1.7,1.8
		c-0.4,0.5-0.6,0.9-0.6,1.3c0.5,1,1,2,1.4,2.8c0.7,1.8,1.5,3.5,2.3,5.2c0.8,1.7,1.6,3.4,2.4,5.1c1.4,2.6,2.6,4.5,3.8,5.8
		c1.1,1.3,2.2,1.9,3.1,1.9c0.2,0,0.6-0.2,1.4-0.5c0.8-0.4,1.8-0.8,3-1.5c0.3-0.4,0.9-0.9,1.8-1.4C394.5,301.1,395,300.7,395,300.6z"
		/>
	<path fill="#FFFFFF" d="M410.4,266.3c0.6-0.4,1.1-0.9,1.7-1.3c0.5-0.4,1.2-0.6,2-0.6c0.4,0,0.8,0.4,1.4,1.2
		c0.5,0.8,0.8,1.4,0.8,1.8c0,0.2-0.1,0.7-0.2,1.5c-0.2,0.8-0.4,1.8-0.7,3.1c-0.7,3-1.1,4.8-1.2,5.6c-0.1,0.8-0.3,1.9-0.6,3.5
		c-0.1,0.4-0.2,0.9-0.4,1.6c0,0.3,0.1,0.5,0.2,0.6c0.1,0.1,0.2,0.2,0.4,0.2c6.1-3.1,9.3-4.7,9.5-4.8c0.2-0.1,0.5-0.1,0.8-0.3
		c0.3-0.1,0.5-0.2,0.8-0.3l0.7-0.9c1.8-1.1,3.6-2.3,5.5-3.6c1.2-0.9,2.1-1.8,2.7-2.7c0.6-0.9,0.9-1.8,0.9-2.7c0-1.1-0.7-2.3-2-3.4
		s-3.3-2.2-5.9-3.2c-2.2-0.9-4.3-1.5-6.1-2c-1.8-0.4-3.5-0.6-5-0.6c-2,0-3.4,0.3-4.4,1c-1,0.7-1.5,1.7-1.5,3.1c0,1,0.1,1.8,0.2,2.4
		C409.9,266.1,410.2,266.4,410.4,266.3z M415.3,288.4c0,0.6,0.4,1.4,1.3,2.5c0.9,1,2.2,2.3,3.9,3.8c1.1,1,2.3,1.9,3.5,2.8
		c1.2,0.9,2.4,1.8,3.6,2.7c0.5,0.4,1.2,1,2,1.7c0.8,0.7,1.8,1.5,2.9,2.4c0.8,0.6,1.6,1.2,2.5,1.8c0.9,0.6,1.8,1.2,2.8,1.8
		c0.7,0.5,1.4,1.1,2.3,1.7c0.8,0.6,1.8,1.3,2.9,2c0.6,0.4,1.1,1,1.4,2s0.5,2.2,0.6,3.8l-0.4,1.2l-0.5,0.2c-0.3,0-0.7-0.1-1.2-0.4
		c-0.5-0.3-1.1-0.6-1.9-1.1c-0.2-0.1-0.9-0.4-2.1-1c-1.2-0.6-3-1.4-5.4-2.5c-1.3-0.6-2.5-1.2-3.5-1.9c-1.1-0.7-2.1-1.4-2.9-2.2
		c-0.5-0.5-1.2-1-2-1.5c-0.8-0.5-1.8-1.1-2.9-1.8c-1.1-0.6-2.1-1.3-2.9-1.8c-0.8-0.6-1.5-1.1-2-1.5c-1.7-1.4-3-2.4-4-3.1
		c-1-0.7-1.8-1.1-2.2-1.1c-0.3,0.4-0.5,0.9-0.5,1.3c-0.4,1.4-0.8,3.3-1.2,5.5c-0.4,2.2-0.9,4.7-1.4,7.7c0,0.5-0.1,0.9-0.3,1.2
		s-0.5,0.4-0.8,0.4c-1.2,0-2.1-0.3-2.7-0.9s-0.9-1.5-0.9-2.6c0-1.6,0.1-3.2,0.3-4.9c0.2-1.7,0.5-3.5,1-5.4c0.2-0.8,0.3-1.6,0.3-2.2
		c0.1-0.7,0.1-1.3,0.1-1.8c0-1.4-0.6-2.6-1.8-3.6c-1.2-1-1.8-1.7-1.8-2.2c0-0.7,0.1-1.3,0.3-1.8c0.2-0.5,0.5-0.9,0.9-1.2
		c1-0.6,1.9-1.3,2.8-1.8c0.2-0.1,0.4-0.3,0.4-0.6c0.1-0.3,0.1-0.7,0.1-1.2c0-0.3,0-0.6,0-1s0-0.7,0-1c0.1-2.7,0.2-5.6,0.2-8.5
		c0-0.2,0-0.6,0-1c0-0.5,0-1.1-0.1-1.8c-0.1-0.6-0.1-1.1,0-1.5c0-0.5,0-0.9,0-1.3c-0.2-0.6-0.3-1.1-0.5-1.6
		c-0.1-0.4-0.2-0.9-0.2-1.3s0-0.9,0.1-1.7c0.1-0.8,0.1-1.3,0.1-1.7s0-1-0.1-1.8c-0.1-0.8-0.1-1.3-0.1-1.7c0-1.1,0.2-2.2,0.8-3.2
		c0.5-1,1.3-2,2.3-3c1-0.9,2-1.5,3.1-2c1.1-0.4,2.1-0.7,3.2-0.7c0.5,0,1.3,0,2.3,0.1c1,0.1,1.8,0.1,2.4,0.1c0.4,0,1.5,0.3,3.3,1
		c0.7,0.1,1.3,0.1,1.9,0.3c0.6,0.1,1,0.2,1.3,0.3c0.8,0.4,1.4,0.7,1.8,0.9s0.7,0.3,0.9,0.3c0.5,0.2,1,0.3,1.4,0.5
		c0.4,0.1,0.7,0.3,0.9,0.5c0.4,0.2,0.9,0.4,1.4,0.6c0.5,0.2,1.1,0.5,1.8,0.8c1.1,0.6,2.1,1.2,3.1,1.9c1,0.7,1.9,1.5,2.7,2.4
		c1,1.1,1.7,2.2,2.2,3.2c0.5,1.1,0.7,2.1,0.7,3.2c0,0.3,0,0.7-0.1,1.3c0,0.6-0.1,1.2-0.3,1.9c-0.1,0.9-0.6,1.8-1.4,2.9
		c-0.8,1-2,2.2-3.6,3.4c-1.4,1.1-2.7,2-3.9,2.7c-1.2,0.7-2.3,1.2-3.3,1.5c-0.4,0.3-0.7,0.5-0.9,0.8c-0.3,0.3-1,0.7-1.9,1.3
		c-1,0.6-2.3,1.2-4,2.1c-3.1,1.5-5.2,2.5-6.5,3C415.9,287.4,415.3,287.9,415.3,288.4z"/>
	<path fill="#FFFFFF" d="M461,287.9c0.7,0,1.7-0.2,3.1-0.5c1.4-0.3,2.4-0.5,3.1-0.5c0.4,0.1,0.9,0.2,1.3,0.2
		c0.8-0.2,1.5-0.3,2.3-0.5c0.7-0.2,1.5-0.4,2.2-0.5c0.3-0.1,0.5-0.2,0.7-0.3c0.2-0.2,0.2-0.4,0.2-0.7c-0.1-0.9-0.1-1.6-0.1-1.9
		c0-0.6,0-1.2,0.1-2c0.1-0.7,0.2-1.5,0.3-2.2l-0.5-2.1l0.2-1.9c-0.1-0.7-0.2-1.3-0.3-1.9c-0.1-0.6-0.1-1.1,0-1.5
		c-0.1-0.1-0.2-0.3-0.3-0.6c-0.2-0.3-0.3-0.6-0.5-0.9c-0.3-0.5-0.6-1-0.9-1.5c-0.3-0.5-0.6-1-0.9-1.4c-0.4-0.6-0.9-1-1.4-1.3
		c-0.5-0.3-1-0.4-1.5-0.4c-0.6,0-1.2,0.5-1.9,1.5c-0.6,1-1.2,2.5-1.8,4.5c-0.1,0.2-0.3,0.8-0.8,1.5c-0.4,0.8-1,1.8-1.8,3
		c-0.1,1.2-0.5,2.6-1.2,4.3c-0.7,1.7-1.7,3.8-2.9,6.1c-0.2,0.2-0.2,0.4-0.3,0.6c0,0.2,0,0.3,0,0.5s0.1,0.4,0.2,0.5
		c0.1,0.1,0.3,0.2,0.5,0.2c0.3,0,0.8,0,1.5-0.1C460.2,287.9,460.7,287.9,461,287.9z M444.3,296.3c-0.1-0.3-0.1-0.6-0.2-0.8
		c0-0.2,0-0.4,0-0.5c0-1,0.1-1.9,0.4-2.6c0.2-0.7,0.6-1.3,1.1-1.8c0.1-0.1,0.4-0.3,0.9-0.6c0.5-0.2,1.2-0.5,2-0.9
		c0.6-0.3,1.1-0.6,1.4-1c0.4-0.4,0.5-0.8,0.6-1.4c0.1-0.4,0.3-0.9,0.5-1.5c0.3-0.6,0.6-1.2,1-1.8c0.1-0.2,0.5-1.2,1.1-3.2
		c0.6-1.9,1.5-4.8,2.6-8.5c0.3-1.1,0.6-2.1,0.9-2.9c0.3-0.8,0.6-1.5,0.8-2.1c1-2.6,1.8-4.3,2.4-5.1s1.1-1.5,1.4-2v-0.3l-1.4-2.3
		l1.8-2.1l2.3-0.5c0.5-0.1,0.9-0.5,1.3-1.3c0.4-0.8,1.1-1.7,2-2.6c0.2-0.1,0.6-0.3,1-0.6c0.5-0.3,1.1-0.8,1.8-1.4
		c0.6-0.5,1.2-0.9,1.7-1.1s0.8-0.4,1.1-0.4c0.8,0,1.4,0.2,1.8,0.5c0.4,0.3,0.6,0.8,0.6,1.3c0,0.7-0.4,1.7-1.1,2.9
		c-0.7,1.3-1.1,2.3-1.1,2.9c0,0.3,0.1,0.6,0.2,0.8c0.1,0.2,0.3,0.3,0.5,0.4l5.5,3c0.3,0.1,0.6,0.6,0.8,1.4c0.2,0.8,0.4,2,0.6,3.5
		c0.2,1.2,0.3,2.2,0.4,3.1c0.1,0.8,0.2,1.5,0.2,2c-0.2,1.3-0.4,2.7-0.6,4c0.3,1.7,0.6,3.5,1,5.4c-0.2,1.8-0.4,3.6-0.6,5.5
		c0,0.2,0,0.3,0.1,0.5c0.1,0.1,0.2,0.2,0.3,0.3c0.5,0,0.9,0.2,1.2,0.4s0.4,0.6,0.4,1c0,0.6-0.1,1-0.3,1.3s-0.4,0.6-0.7,0.8
		c-0.4,0.2-0.7,0.5-0.9,0.6c-0.2,0.2-0.4,0.3-0.5,0.5l0.6,2.9l-0.8,6.5c0,0.6,0,1.3-0.1,2.1c-0.1,0.9-0.2,1.9-0.4,3
		c-0.3,0.8-0.5,1.5-0.7,2.1c-0.2,0.6-0.2,0.9-0.2,1.1c0.2,0.5,0.3,1.1,0.4,1.7c-0.2,0.8-0.4,1.7-0.6,2.5c-0.2,0.8-0.4,1.6-0.6,2.4
		c-0.3,1.1-0.8,1.9-1.3,2.4s-1.2,0.8-1.9,0.8c-0.4,0-0.7-0.2-0.9-0.5c-0.2-0.4-0.3-0.9-0.3-1.6c0-0.3,0.1-0.8,0.2-1.3
		c0.1-0.6,0.2-1,0.2-1.3c0-0.2,0-0.5-0.1-0.9c-0.1-0.4-0.1-0.7-0.1-1c0-0.9,0.1-2.2,0.3-4.1c0.2-1.9,0.2-3.3,0.2-4.3
		c-0.2-0.5-0.3-1.1-0.5-1.6c0.1-0.6,0.2-1.2,0.2-1.8s0-1.2,0-1.7l0.7-1.2l-0.6-4.3l-0.3-0.1c-0.2,0-0.5,0.1-0.8,0.2
		c-0.4,0.1-0.8,0.4-1.3,0.7c-0.4,0.1-0.9,0.2-1.7,0.4c-0.8,0.1-1.8,0.2-3.1,0.3c-0.5,0.3-1.1,0.5-1.6,0.7c-0.7,0.2-1.6,0.4-2.7,0.8
		s-2.3,0.9-3.7,1.4c-0.8,0.4-1.6,0.7-2.3,0.9s-1.3,0.3-1.7,0.3s-0.7,0.1-0.9,0.4c-0.2,0.3-0.4,0.7-0.6,1.2c-0.1,0.5-0.3,1.2-0.7,2
		c-0.4,0.9-0.8,1.9-1.4,3.2c-0.1,0.3-0.3,0.9-0.5,1.6c-0.2,0.7-0.5,1.6-0.7,2.6c-0.2,0.4-0.4,0.9-0.6,1.5c-0.2,0.6-0.5,1.3-0.8,2.1
		c0,0.4,0,0.8-0.1,1.4c-0.1,0.5-0.2,1.2-0.3,1.9c-0.2,0.4-0.4,1-0.6,1.6c-0.3,0.7-0.6,1.4-1,2.2c-0.2,0.5-0.6,0.8-1.1,1.1
		c-0.5,0.2-1.1,0.3-1.8,0.3c-0.5,0-0.9-0.2-1.2-0.5c-0.3-0.4-0.4-0.9-0.4-1.6c0-0.8,0.1-1.7,0.3-2.7c0.2-1,0.5-2.2,0.9-3.4
		c0.4-1.6,0.8-2.9,1.1-4c0.3-1,0.5-1.8,0.5-2.3c0.1-0.2,0.2-0.6,0.4-1.1c0.2-0.5,0.4-1.2,0.6-2c0.3-0.8,0.5-1.6,0.8-2.6l-0.2-0.4
		l-1.5,0.2c-0.3,0-0.6-0.2-0.7-0.4c-0.2-0.2-0.2-0.6-0.2-1c0-0.2,0-0.5,0.1-0.7C444.1,297,444.2,296.7,444.3,296.3z"/>
	<path fill="#FFFFFF" d="M530.8,300.6c1.3,2.7,1.9,4.1,1.9,4.2c-0.6,0.6-1.4,1.4-2.5,2.2c-1,0.8-2.3,1.7-3.8,2.7
		c-1.6,1.1-2.9,1.9-4,2.4s-1.9,0.7-2.5,0.7c-1.3,0-2.4-0.3-3.4-1c-1-0.6-1.9-1.7-2.5-3c-0.1-0.2-0.2-0.4-0.3-0.6
		c-0.1-0.2-0.2-0.5-0.4-0.7c-0.8-0.7-1.5-1.5-2.2-2.2c-0.3-0.4-1-1.2-1.9-2.6c-0.9-1.4-2.1-3.3-3.6-5.7c-0.6-1.1-1.3-2.3-2.1-3.4
		c-0.7-1.2-1.5-2.3-2.3-3.5c-0.2,0.3-0.5,1-0.7,2.1c-0.3,1.1-0.5,2.6-0.8,4.6c0,0.3-0.1,0.8-0.3,1.5s-0.3,1.2-0.3,1.6
		c0,0.2,0,0.4,0.1,0.8c0.1,0.4,0.1,0.6,0.1,0.8c0,1-0.1,2.5-0.4,4.5c-0.3,2-0.4,3.5-0.4,4.5c0,0.8-0.1,1.4-0.4,1.7
		c-0.3,0.4-0.7,0.5-1.3,0.5c-0.6-0.1-1.2-0.2-1.5-0.3c-0.5,0.1-0.9,0.2-1.3,0.3c-0.3,0-0.6-0.2-0.8-0.6c-0.2-0.4-0.3-1.1-0.3-2
		c0-0.3,0.1-0.8,0.2-1.5c0.2-0.7,0.2-1.2,0.2-1.6c0-0.2,0-0.6-0.1-1.2c-0.1-0.5-0.1-0.9-0.1-1.2c0-0.2,0.1-1,0.2-2.3
		c0.1-1.3,0.4-3.1,0.7-5.6c0.3-2.5,0.5-4.4,0.7-5.9c0.2-1.4,0.4-2.3,0.5-2.6c0.1-0.2,0.2-0.5,0.4-0.8c0.2-0.3,0.3-0.7,0.3-1.1
		l-0.7-2.6c0.2-1.4,0.5-3.5,0.9-6.2c0.4-2.7,0.8-6.2,1.3-10.4c0.3-2.5,0.5-4.4,0.6-5.7c0.2-1.3,0.2-2.1,0.3-2.3
		c0.4-1.3,1.1-2.3,2-3.1c0.9-0.8,2-1.5,3.4-1.9c0.2-0.1,0.4-0.3,0.7-0.5c0.3-0.2,0.6-0.5,0.9-0.7c0.4-0.1,0.9,0.5,1.5,1.7
		c0.6,1.2,0.9,2,0.9,2.6c0,0.2,0,0.6-0.1,1c-0.1,0.4-0.2,0.9-0.4,1.4c-0.2,0.7-0.4,1.2-0.5,1.7c-0.1,0.4-0.2,0.7-0.2,0.9
		c-0.5,1.7-1,3.8-1.7,6.3c-0.6,2.5-1.3,5.6-2,9c-0.1,0.3-0.1,0.6-0.2,1s-0.2,0.9-0.4,1.5c-0.1,0.5-0.2,1-0.3,1.4
		c-0.1,0.4-0.1,0.8-0.1,1.1c0,0.4,0.1,0.8,0.5,1.3c0.9-0.3,2.4-1.6,4.4-3.8c2-2.2,4.6-5.2,7.8-9.2c3.3-4,5.7-7.2,7.3-9.7
		c1.6-2.5,2.4-4.3,2.4-5.3c0-0.4-0.2-0.8-0.7-1.4c-0.5-0.6-0.7-1-0.7-1.5c0-0.8,0.4-1.5,1.1-2c0.7-0.5,1.8-0.9,3.3-1.2
		c0.3,0,0.8-0.3,1.4-0.8c0.6-0.5,1.2-0.8,1.7-0.8c0.5,0.1,0.9,0.2,1.3,0.2c0.5-0.3,1-0.6,1.5-0.9c0.5,0.5,0.8,1,1,1.5
		c0.2,0.6,0.3,1.2,0.3,2c0,1.5-0.2,2.8-0.5,3.9c-0.4,1.1-0.9,2-1.6,2.7c-0.2,0.2-0.4,0.4-0.7,0.6c-0.2,0.2-0.5,0.5-0.7,0.8
		c-0.5,1-1.2,2.2-2,3.5c-0.9,1.3-1.9,2.6-3.1,4.1c-2.6,3.3-5.1,6.1-7.3,8.6c-2.2,2.5-4.2,4.5-6,6.2c-0.7,0.7-1.3,1.3-1.7,1.8
		c-0.4,0.5-0.6,0.9-0.6,1.3c0.5,1,1,2,1.4,2.8c0.7,1.8,1.5,3.5,2.3,5.2c0.8,1.7,1.6,3.4,2.4,5.1c1.3,2.6,2.6,4.5,3.8,5.8
		c1.1,1.3,2.2,1.9,3.1,1.9c0.2,0,0.6-0.2,1.4-0.5c0.8-0.4,1.8-0.8,3-1.5c0.3-0.4,0.9-0.9,1.8-1.4
		C530.3,301.1,530.8,300.7,530.8,300.6z"/>
</g>
</svg>
